<mxfile host="Electron" modified="2024-06-02T20:53:59.664Z" agent="Mozilla/5.0 (Macintosh; Intel Mac OS X 10_15_7) AppleWebKit/537.36 (KHTML, like Gecko) draw.io/24.4.0 Chrome/120.0.6099.109 Electron/28.1.0 Safari/537.36" etag="kNzb9yO-y-AyNtuo-oVi" version="24.4.0" type="device">
  <diagram name="Страница — 1" id="KgZG3EwIhVlabFlte60I">
    <mxGraphModel dx="406" dy="261" grid="1" gridSize="10" guides="1" tooltips="1" connect="1" arrows="1" fold="1" page="1" pageScale="1" pageWidth="827" pageHeight="1169" math="0" shadow="0">
      <root>
        <mxCell id="0" />
        <mxCell id="1" parent="0" />
        <mxCell id="2mDlJUmidZRrBrmvubiY-2" style="edgeStyle=orthogonalEdgeStyle;rounded=0;orthogonalLoop=1;jettySize=auto;html=1;exitX=0;exitY=0.75;exitDx=0;exitDy=0;entryX=0.25;entryY=1;entryDx=0;entryDy=0;" parent="1" source="2mDlJUmidZRrBrmvubiY-128" target="2mDlJUmidZRrBrmvubiY-65" edge="1">
          <mxGeometry relative="1" as="geometry">
            <Array as="points">
              <mxPoint x="190" y="560" />
              <mxPoint x="190" y="140" />
              <mxPoint x="400" y="140" />
              <mxPoint x="400" y="174" />
            </Array>
            <mxPoint x="389.99" y="870" as="sourcePoint" />
          </mxGeometry>
        </mxCell>
        <mxCell id="2mDlJUmidZRrBrmvubiY-3" value="(TOS)" style="edgeLabel;html=1;align=center;verticalAlign=middle;resizable=0;points=[];" parent="2mDlJUmidZRrBrmvubiY-2" vertex="1" connectable="0">
          <mxGeometry x="0.9537" y="1" relative="1" as="geometry">
            <mxPoint x="-5" as="offset" />
          </mxGeometry>
        </mxCell>
        <mxCell id="2mDlJUmidZRrBrmvubiY-4" style="edgeStyle=orthogonalEdgeStyle;rounded=0;orthogonalLoop=1;jettySize=auto;html=1;exitX=0;exitY=0.75;exitDx=0;exitDy=0;entryX=0.648;entryY=1.025;entryDx=0;entryDy=0;entryPerimeter=0;" parent="1" source="2mDlJUmidZRrBrmvubiY-128" target="2mDlJUmidZRrBrmvubiY-60" edge="1">
          <mxGeometry relative="1" as="geometry">
            <Array as="points">
              <mxPoint x="190" y="560" />
              <mxPoint x="190" y="329" />
            </Array>
            <mxPoint x="240" y="330" as="targetPoint" />
            <mxPoint x="389.99" y="870" as="sourcePoint" />
          </mxGeometry>
        </mxCell>
        <mxCell id="2mDlJUmidZRrBrmvubiY-5" value="(TOS)" style="edgeLabel;html=1;align=center;verticalAlign=middle;resizable=0;points=[];" parent="2mDlJUmidZRrBrmvubiY-4" vertex="1" connectable="0">
          <mxGeometry x="0.89" y="1" relative="1" as="geometry">
            <mxPoint x="-4" y="1" as="offset" />
          </mxGeometry>
        </mxCell>
        <mxCell id="2mDlJUmidZRrBrmvubiY-130" value="(TOS)" style="edgeLabel;html=1;align=center;verticalAlign=middle;resizable=0;points=[];" parent="2mDlJUmidZRrBrmvubiY-4" vertex="1" connectable="0">
          <mxGeometry x="-0.9099" relative="1" as="geometry">
            <mxPoint as="offset" />
          </mxGeometry>
        </mxCell>
        <mxCell id="2mDlJUmidZRrBrmvubiY-6" style="edgeStyle=orthogonalEdgeStyle;rounded=0;orthogonalLoop=1;jettySize=auto;html=1;exitX=0;exitY=0.5;exitDx=0;exitDy=0;jumpStyle=none;entryX=0.834;entryY=1;entryDx=0;entryDy=0;entryPerimeter=0;" parent="1" source="2mDlJUmidZRrBrmvubiY-128" target="2mDlJUmidZRrBrmvubiY-60" edge="1">
          <mxGeometry relative="1" as="geometry">
            <Array as="points">
              <mxPoint x="210" y="540" />
              <mxPoint x="210" y="340" />
            </Array>
            <mxPoint x="240" y="370" as="targetPoint" />
            <mxPoint x="464.99" y="820" as="sourcePoint" />
          </mxGeometry>
        </mxCell>
        <mxCell id="2mDlJUmidZRrBrmvubiY-7" value="(DS)" style="edgeLabel;html=1;align=center;verticalAlign=middle;resizable=0;points=[];" parent="2mDlJUmidZRrBrmvubiY-6" vertex="1" connectable="0">
          <mxGeometry x="0.75" relative="1" as="geometry">
            <mxPoint as="offset" />
          </mxGeometry>
        </mxCell>
        <mxCell id="2mDlJUmidZRrBrmvubiY-129" value="(DS)" style="edgeLabel;html=1;align=center;verticalAlign=middle;resizable=0;points=[];" parent="2mDlJUmidZRrBrmvubiY-6" vertex="1" connectable="0">
          <mxGeometry x="-0.9059" y="-2" relative="1" as="geometry">
            <mxPoint as="offset" />
          </mxGeometry>
        </mxCell>
        <mxCell id="2mDlJUmidZRrBrmvubiY-12" style="edgeStyle=orthogonalEdgeStyle;rounded=0;orthogonalLoop=1;jettySize=auto;html=1;exitX=0.5;exitY=1;exitDx=0;exitDy=0;entryX=0.5;entryY=0;entryDx=0;entryDy=0;jumpStyle=none;" parent="1" source="2mDlJUmidZRrBrmvubiY-67" target="2mDlJUmidZRrBrmvubiY-19" edge="1">
          <mxGeometry relative="1" as="geometry">
            <mxPoint x="599.99" y="380" as="sourcePoint" />
          </mxGeometry>
        </mxCell>
        <mxCell id="2mDlJUmidZRrBrmvubiY-13" style="edgeStyle=orthogonalEdgeStyle;rounded=0;orthogonalLoop=1;jettySize=auto;html=1;exitX=1;exitY=0.5;exitDx=0;exitDy=0;entryX=0.75;entryY=1;entryDx=0;entryDy=0;" parent="1" source="2mDlJUmidZRrBrmvubiY-16" target="2mDlJUmidZRrBrmvubiY-65" edge="1">
          <mxGeometry relative="1" as="geometry">
            <mxPoint x="439.99" y="320" as="targetPoint" />
            <Array as="points">
              <mxPoint x="400" y="320" />
              <mxPoint x="400" y="204" />
            </Array>
          </mxGeometry>
        </mxCell>
        <mxCell id="2mDlJUmidZRrBrmvubiY-14" value="(PC)" style="edgeLabel;html=1;align=center;verticalAlign=middle;resizable=0;points=[];" parent="2mDlJUmidZRrBrmvubiY-13" vertex="1" connectable="0">
          <mxGeometry x="0.6617" y="2" relative="1" as="geometry">
            <mxPoint x="-5" as="offset" />
          </mxGeometry>
        </mxCell>
        <mxCell id="2mDlJUmidZRrBrmvubiY-15" style="edgeStyle=orthogonalEdgeStyle;rounded=0;orthogonalLoop=1;jettySize=auto;html=1;exitX=1;exitY=0.5;exitDx=0;exitDy=0;entryX=1;entryY=0.5;entryDx=0;entryDy=0;" parent="1" source="2mDlJUmidZRrBrmvubiY-16" target="2mDlJUmidZRrBrmvubiY-99" edge="1">
          <mxGeometry relative="1" as="geometry">
            <Array as="points">
              <mxPoint x="400" y="320" />
              <mxPoint x="400" y="270" />
            </Array>
          </mxGeometry>
        </mxCell>
        <mxCell id="2mDlJUmidZRrBrmvubiY-16" value="PC" style="rounded=0;whiteSpace=wrap;html=1;fillColor=#ffe6cc;strokeColor=#d79b00;" parent="1" vertex="1">
          <mxGeometry x="319.93" y="305" width="60.01" height="30" as="geometry" />
        </mxCell>
        <mxCell id="2mDlJUmidZRrBrmvubiY-17" style="edgeStyle=orthogonalEdgeStyle;rounded=0;orthogonalLoop=1;jettySize=auto;html=1;exitX=0.5;exitY=1;exitDx=0;exitDy=0;entryX=0.5;entryY=1;entryDx=0;entryDy=0;" parent="1" target="2mDlJUmidZRrBrmvubiY-61" edge="1">
          <mxGeometry relative="1" as="geometry">
            <mxPoint x="599.99" y="450.0500000000002" as="sourcePoint" />
            <mxPoint x="599.99" y="510.1" as="targetPoint" />
          </mxGeometry>
        </mxCell>
        <mxCell id="2mDlJUmidZRrBrmvubiY-18" value="(Opcode)" style="edgeLabel;html=1;align=center;verticalAlign=middle;resizable=0;points=[];" parent="2mDlJUmidZRrBrmvubiY-17" vertex="1" connectable="0">
          <mxGeometry x="-0.1222" y="1" relative="1" as="geometry">
            <mxPoint as="offset" />
          </mxGeometry>
        </mxCell>
        <mxCell id="2mDlJUmidZRrBrmvubiY-19" value="opcode -&amp;gt; mPC" style="rounded=0;whiteSpace=wrap;html=1;fillColor=#f8cecc;strokeColor=#b85450;" parent="1" vertex="1">
          <mxGeometry x="539.99" y="420" width="120" height="40" as="geometry" />
        </mxCell>
        <mxCell id="2mDlJUmidZRrBrmvubiY-20" style="edgeStyle=orthogonalEdgeStyle;rounded=0;orthogonalLoop=1;jettySize=auto;html=1;exitX=0.5;exitY=0;exitDx=0;exitDy=0;entryX=0.5;entryY=0;entryDx=0;entryDy=0;" parent="1" source="2mDlJUmidZRrBrmvubiY-61" target="2mDlJUmidZRrBrmvubiY-23" edge="1">
          <mxGeometry relative="1" as="geometry">
            <mxPoint x="599.94" y="560.05" as="sourcePoint" />
          </mxGeometry>
        </mxCell>
        <mxCell id="2mDlJUmidZRrBrmvubiY-21" style="edgeStyle=orthogonalEdgeStyle;rounded=0;orthogonalLoop=1;jettySize=auto;html=1;exitX=0;exitY=0.5;exitDx=0;exitDy=0;entryX=1;entryY=0.5;entryDx=0;entryDy=0;" parent="1" source="2mDlJUmidZRrBrmvubiY-23" target="2mDlJUmidZRrBrmvubiY-42" edge="1">
          <mxGeometry relative="1" as="geometry">
            <Array as="points">
              <mxPoint x="520" y="595" />
              <mxPoint x="520" y="410" />
            </Array>
          </mxGeometry>
        </mxCell>
        <mxCell id="2mDlJUmidZRrBrmvubiY-22" style="edgeStyle=orthogonalEdgeStyle;rounded=0;orthogonalLoop=1;jettySize=auto;html=1;exitX=1;exitY=0.5;exitDx=0;exitDy=0;entryX=0.5;entryY=1;entryDx=0;entryDy=0;" parent="1" source="2mDlJUmidZRrBrmvubiY-23" target="2mDlJUmidZRrBrmvubiY-102" edge="1">
          <mxGeometry relative="1" as="geometry" />
        </mxCell>
        <mxCell id="2mDlJUmidZRrBrmvubiY-23" value="MPC" style="rounded=0;whiteSpace=wrap;html=1;fillColor=#ffe6cc;strokeColor=#d79b00;" parent="1" vertex="1">
          <mxGeometry x="569.8800000000001" y="579.9999999999999" width="60.06" height="29.95" as="geometry" />
        </mxCell>
        <mxCell id="2mDlJUmidZRrBrmvubiY-26" style="edgeStyle=orthogonalEdgeStyle;rounded=0;orthogonalLoop=1;jettySize=auto;html=1;entryX=0.859;entryY=1.007;entryDx=0;entryDy=0;dashed=1;entryPerimeter=0;" parent="1" target="2mDlJUmidZRrBrmvubiY-76" edge="1">
          <mxGeometry relative="1" as="geometry">
            <mxPoint x="340" y="460" as="sourcePoint" />
          </mxGeometry>
        </mxCell>
        <mxCell id="2mDlJUmidZRrBrmvubiY-27" value="next" style="edgeLabel;html=1;align=center;verticalAlign=middle;resizable=0;points=[];fontStyle=2" parent="2mDlJUmidZRrBrmvubiY-26" vertex="1" connectable="0">
          <mxGeometry x="-0.3" relative="1" as="geometry">
            <mxPoint as="offset" />
          </mxGeometry>
        </mxCell>
        <mxCell id="2mDlJUmidZRrBrmvubiY-30" style="edgeStyle=orthogonalEdgeStyle;rounded=0;orthogonalLoop=1;jettySize=auto;html=1;entryX=0.668;entryY=0.989;entryDx=0;entryDy=0;dashed=1;entryPerimeter=0;" parent="1" target="2mDlJUmidZRrBrmvubiY-76" edge="1">
          <mxGeometry relative="1" as="geometry">
            <mxPoint x="340" y="480" as="sourcePoint" />
          </mxGeometry>
        </mxCell>
        <mxCell id="2mDlJUmidZRrBrmvubiY-31" value="jump type" style="edgeLabel;html=1;align=center;verticalAlign=middle;resizable=0;points=[];fontStyle=2" parent="2mDlJUmidZRrBrmvubiY-30" vertex="1" connectable="0">
          <mxGeometry x="-0.4" y="-1" relative="1" as="geometry">
            <mxPoint as="offset" />
          </mxGeometry>
        </mxCell>
        <mxCell id="2mDlJUmidZRrBrmvubiY-32" style="edgeStyle=orthogonalEdgeStyle;rounded=0;orthogonalLoop=1;jettySize=auto;html=1;entryX=0.5;entryY=1;entryDx=0;entryDy=0;dashed=1;" parent="1" target="2mDlJUmidZRrBrmvubiY-16" edge="1">
          <mxGeometry relative="1" as="geometry">
            <mxPoint x="350" y="380" as="sourcePoint" />
          </mxGeometry>
        </mxCell>
        <mxCell id="2mDlJUmidZRrBrmvubiY-33" value="&lt;i&gt;latch&lt;/i&gt;" style="edgeLabel;html=1;align=center;verticalAlign=middle;resizable=0;points=[];" parent="2mDlJUmidZRrBrmvubiY-32" vertex="1" connectable="0">
          <mxGeometry relative="1" as="geometry">
            <mxPoint as="offset" />
          </mxGeometry>
        </mxCell>
        <mxCell id="2mDlJUmidZRrBrmvubiY-34" style="edgeStyle=orthogonalEdgeStyle;rounded=0;orthogonalLoop=1;jettySize=auto;html=1;entryX=0;entryY=0;entryDx=0;entryDy=0;dashed=1;" parent="1" target="2mDlJUmidZRrBrmvubiY-23" edge="1">
          <mxGeometry relative="1" as="geometry">
            <mxPoint x="580" y="605" as="targetPoint" />
            <mxPoint x="550" y="551" as="sourcePoint" />
          </mxGeometry>
        </mxCell>
        <mxCell id="2mDlJUmidZRrBrmvubiY-35" value="&lt;i&gt;latch&lt;/i&gt;" style="edgeLabel;html=1;align=center;verticalAlign=middle;resizable=0;points=[];" parent="2mDlJUmidZRrBrmvubiY-34" vertex="1" connectable="0">
          <mxGeometry x="-0.5" relative="1" as="geometry">
            <mxPoint as="offset" />
          </mxGeometry>
        </mxCell>
        <mxCell id="KsecI5k_HvtopcEXdQ_s-1" style="edgeStyle=orthogonalEdgeStyle;rounded=0;orthogonalLoop=1;jettySize=auto;html=1;exitX=0.5;exitY=1;exitDx=0;exitDy=0;exitPerimeter=0;entryX=0.5;entryY=0;entryDx=0;entryDy=0;dashed=1;" parent="1" source="2mDlJUmidZRrBrmvubiY-42" target="2mDlJUmidZRrBrmvubiY-128" edge="1">
          <mxGeometry relative="1" as="geometry" />
        </mxCell>
        <mxCell id="KsecI5k_HvtopcEXdQ_s-2" value="signals" style="edgeLabel;html=1;align=center;verticalAlign=middle;resizable=0;points=[];" parent="KsecI5k_HvtopcEXdQ_s-1" vertex="1" connectable="0">
          <mxGeometry relative="1" as="geometry">
            <mxPoint as="offset" />
          </mxGeometry>
        </mxCell>
        <mxCell id="2mDlJUmidZRrBrmvubiY-42" value="Micro&lt;div&gt;Program&lt;/div&gt;" style="rounded=0;whiteSpace=wrap;html=1;fillColor=#dae8fc;strokeColor=#6c8ebf;points=[[0,0,0,0,0],[0,0.25,0,0,0],[0,0.5,0,0,0],[0,0.75,0,0,0],[0,1,0,0,0],[0.13,0,0,0,0],[0.13,1,0,0,0],[0.25,0,0,0,0],[0.25,1,0,0,0],[0.38,0,0,0,0],[0.38,1,0,0,0],[0.5,0,0,0,0],[0.5,1,0,0,0],[0.63,0,0,0,0],[0.63,1,0,0,0],[0.75,0,0,0,0],[0.75,1,0,0,0],[0.88,0,0,0,0],[0.88,1,0,0,0],[1,0,0,0,0],[1,0.25,0,0,0],[1,0.5,0,0,0],[1,0.75,0,0,0],[1,1,0,0,0]];" parent="1" vertex="1">
          <mxGeometry x="379.94" y="379.99999999999994" width="120" height="60" as="geometry" />
        </mxCell>
        <mxCell id="2mDlJUmidZRrBrmvubiY-48" style="edgeStyle=orthogonalEdgeStyle;rounded=0;orthogonalLoop=1;jettySize=auto;html=1;entryX=0.666;entryY=1.001;entryDx=0;entryDy=0;entryPerimeter=0;" parent="1" source="2mDlJUmidZRrBrmvubiY-49" target="2mDlJUmidZRrBrmvubiY-61" edge="1">
          <mxGeometry relative="1" as="geometry">
            <Array as="points">
              <mxPoint x="589.94" y="500.05" />
            </Array>
            <mxPoint x="589.94" y="520.05" as="targetPoint" />
          </mxGeometry>
        </mxCell>
        <mxCell id="2mDlJUmidZRrBrmvubiY-49" value="(0)" style="text;html=1;align=center;verticalAlign=middle;whiteSpace=wrap;rounded=0;fontSize=11;" parent="1" vertex="1">
          <mxGeometry x="549.94" y="490.05" width="20" height="20" as="geometry" />
        </mxCell>
        <mxCell id="2mDlJUmidZRrBrmvubiY-59" style="edgeStyle=orthogonalEdgeStyle;rounded=0;orthogonalLoop=1;jettySize=auto;html=1;exitX=0.5;exitY=0;exitDx=0;exitDy=0;entryX=0;entryY=0.5;entryDx=0;entryDy=0;" parent="1" source="2mDlJUmidZRrBrmvubiY-60" target="2mDlJUmidZRrBrmvubiY-16" edge="1">
          <mxGeometry relative="1" as="geometry" />
        </mxCell>
        <mxCell id="2mDlJUmidZRrBrmvubiY-60" value="MUX" style="shape=trapezoid;perimeter=trapezoidPerimeter;whiteSpace=wrap;html=1;fixedSize=1;fillColor=#d5e8d4;strokeColor=#82b366;direction=west;rotation=-90;" parent="1" vertex="1">
          <mxGeometry x="239.99" y="300" width="60" height="40" as="geometry" />
        </mxCell>
        <mxCell id="2mDlJUmidZRrBrmvubiY-61" value="MUX" style="shape=trapezoid;perimeter=trapezoidPerimeter;whiteSpace=wrap;html=1;fixedSize=1;fillColor=#d5e8d4;strokeColor=#82b366;direction=west;rotation=0;" parent="1" vertex="1">
          <mxGeometry x="569.94" y="520.05" width="60" height="40" as="geometry" />
        </mxCell>
        <mxCell id="2mDlJUmidZRrBrmvubiY-62" style="edgeStyle=orthogonalEdgeStyle;rounded=0;orthogonalLoop=1;jettySize=auto;html=1;exitX=0.5;exitY=1;exitDx=0;exitDy=0;entryX=1;entryY=0.5;entryDx=0;entryDy=0;" parent="1" source="2mDlJUmidZRrBrmvubiY-63" target="2mDlJUmidZRrBrmvubiY-68" edge="1">
          <mxGeometry relative="1" as="geometry" />
        </mxCell>
        <mxCell id="2mDlJUmidZRrBrmvubiY-63" value="AR" style="rounded=0;whiteSpace=wrap;html=1;fillColor=#ffe6cc;strokeColor=#d79b00;points=[[0,0,0,0,0],[0,0.25,0,0,0],[0,0.5,0,0,0],[0,0.75,0,0,0],[0,1,0,0,0],[0.13,1,0,0,0],[0.25,0,0,0,0],[0.25,1,0,0,0],[0.5,0,0,0,0],[0.5,1,0,0,0],[0.75,0,0,0,0],[0.75,1,0,0,0],[1,0,0,0,0],[1,0.25,0,0,0],[1,0.5,0,0,0],[1,0.75,0,0,0],[1,1,0,0,0]];" parent="1" vertex="1">
          <mxGeometry x="519.98" y="173.88" width="60.01" height="30" as="geometry" />
        </mxCell>
        <mxCell id="2mDlJUmidZRrBrmvubiY-64" style="edgeStyle=orthogonalEdgeStyle;rounded=0;orthogonalLoop=1;jettySize=auto;html=1;exitX=0.5;exitY=0;exitDx=0;exitDy=0;entryX=0;entryY=0.5;entryDx=0;entryDy=0;" parent="1" source="2mDlJUmidZRrBrmvubiY-65" target="2mDlJUmidZRrBrmvubiY-63" edge="1">
          <mxGeometry relative="1" as="geometry" />
        </mxCell>
        <mxCell id="2mDlJUmidZRrBrmvubiY-65" value="MUX" style="shape=trapezoid;perimeter=trapezoidPerimeter;whiteSpace=wrap;html=1;fixedSize=1;fillColor=#d5e8d4;strokeColor=#82b366;direction=west;rotation=-90;" parent="1" vertex="1">
          <mxGeometry x="439.99" y="168.88" width="60" height="40" as="geometry" />
        </mxCell>
        <mxCell id="2mDlJUmidZRrBrmvubiY-66" value="" style="group" parent="1" vertex="1" connectable="0">
          <mxGeometry x="539.99" y="260" width="100" height="120" as="geometry" />
        </mxCell>
        <mxCell id="2mDlJUmidZRrBrmvubiY-67" value="Memory" style="rounded=0;whiteSpace=wrap;html=1;fontSize=13;fillColor=#dae8fc;strokeColor=#6c8ebf;" parent="2mDlJUmidZRrBrmvubiY-66" vertex="1">
          <mxGeometry x="20" width="80" height="120" as="geometry" />
        </mxCell>
        <mxCell id="2mDlJUmidZRrBrmvubiY-68" value="Address" style="rounded=0;whiteSpace=wrap;html=1;fontSize=13;fillColor=#dae8fc;strokeColor=#6c8ebf;rotation=-90;" parent="2mDlJUmidZRrBrmvubiY-66" vertex="1">
          <mxGeometry x="-50" y="50" width="120" height="20" as="geometry" />
        </mxCell>
        <mxCell id="2mDlJUmidZRrBrmvubiY-75" style="edgeStyle=orthogonalEdgeStyle;rounded=0;orthogonalLoop=1;jettySize=auto;html=1;exitX=0.5;exitY=0;exitDx=0;exitDy=0;entryX=1;entryY=0.5;entryDx=0;entryDy=0;dashed=1;" parent="1" source="2mDlJUmidZRrBrmvubiY-76" target="2mDlJUmidZRrBrmvubiY-60" edge="1">
          <mxGeometry relative="1" as="geometry" />
        </mxCell>
        <mxCell id="QOjweokyIYHWbEQZ4E4K-2" value="sel_pc" style="edgeLabel;html=1;align=center;verticalAlign=middle;resizable=0;points=[];fontStyle=2" vertex="1" connectable="0" parent="2mDlJUmidZRrBrmvubiY-75">
          <mxGeometry x="-0.1" y="2" relative="1" as="geometry">
            <mxPoint as="offset" />
          </mxGeometry>
        </mxCell>
        <mxCell id="2mDlJUmidZRrBrmvubiY-76" value="MUX" style="shape=trapezoid;perimeter=trapezoidPerimeter;whiteSpace=wrap;html=1;fixedSize=1;fillColor=#d5e8d4;strokeColor=#82b366;direction=east;" parent="1" vertex="1">
          <mxGeometry x="239.99" y="400" width="60" height="40" as="geometry" />
        </mxCell>
        <mxCell id="2mDlJUmidZRrBrmvubiY-84" style="edgeStyle=orthogonalEdgeStyle;rounded=0;orthogonalLoop=1;jettySize=auto;html=1;entryX=0.13;entryY=1;entryDx=0;entryDy=0;entryPerimeter=0;dashed=1;" parent="1" target="2mDlJUmidZRrBrmvubiY-63" edge="1">
          <mxGeometry relative="1" as="geometry">
            <Array as="points">
              <mxPoint x="528" y="250" />
              <mxPoint x="528" y="250" />
            </Array>
            <mxPoint x="528" y="250" as="sourcePoint" />
          </mxGeometry>
        </mxCell>
        <mxCell id="2mDlJUmidZRrBrmvubiY-85" value="&lt;i&gt;latch&lt;/i&gt;" style="edgeLabel;html=1;align=center;verticalAlign=middle;resizable=0;points=[];" parent="2mDlJUmidZRrBrmvubiY-84" vertex="1" connectable="0">
          <mxGeometry relative="1" as="geometry">
            <mxPoint as="offset" />
          </mxGeometry>
        </mxCell>
        <mxCell id="2mDlJUmidZRrBrmvubiY-97" style="edgeStyle=orthogonalEdgeStyle;rounded=0;orthogonalLoop=1;jettySize=auto;html=1;exitX=0;exitY=0.5;exitDx=0;exitDy=0;entryX=0.147;entryY=1.02;entryDx=0;entryDy=0;entryPerimeter=0;" parent="1" source="2mDlJUmidZRrBrmvubiY-99" target="2mDlJUmidZRrBrmvubiY-60" edge="1">
          <mxGeometry relative="1" as="geometry" />
        </mxCell>
        <mxCell id="2mDlJUmidZRrBrmvubiY-98" value="(Next)" style="edgeLabel;html=1;align=center;verticalAlign=middle;resizable=0;points=[];" parent="2mDlJUmidZRrBrmvubiY-97" vertex="1" connectable="0">
          <mxGeometry x="0.58" relative="1" as="geometry">
            <mxPoint as="offset" />
          </mxGeometry>
        </mxCell>
        <mxCell id="2mDlJUmidZRrBrmvubiY-99" value="+1" style="rounded=0;whiteSpace=wrap;html=1;fillColor=#f8cecc;strokeColor=#b85450;" parent="1" vertex="1">
          <mxGeometry x="349.7100000000001" y="260" width="20.56" height="19.98" as="geometry" />
        </mxCell>
        <mxCell id="2mDlJUmidZRrBrmvubiY-100" style="edgeStyle=orthogonalEdgeStyle;rounded=0;orthogonalLoop=1;jettySize=auto;html=1;exitX=0.5;exitY=0;exitDx=0;exitDy=0;entryX=0.25;entryY=1;entryDx=0;entryDy=0;" parent="1" source="2mDlJUmidZRrBrmvubiY-102" target="2mDlJUmidZRrBrmvubiY-61" edge="1">
          <mxGeometry relative="1" as="geometry" />
        </mxCell>
        <mxCell id="2mDlJUmidZRrBrmvubiY-101" value="(Next)" style="edgeLabel;html=1;align=center;verticalAlign=middle;resizable=0;points=[];" parent="2mDlJUmidZRrBrmvubiY-100" vertex="1" connectable="0">
          <mxGeometry x="0.3078" relative="1" as="geometry">
            <mxPoint x="5" as="offset" />
          </mxGeometry>
        </mxCell>
        <mxCell id="2mDlJUmidZRrBrmvubiY-102" value="+1" style="rounded=0;whiteSpace=wrap;html=1;fillColor=#f8cecc;strokeColor=#b85450;" parent="1" vertex="1">
          <mxGeometry x="650" y="550.05" width="20.56" height="19.98" as="geometry" />
        </mxCell>
        <mxCell id="2mDlJUmidZRrBrmvubiY-112" style="edgeStyle=orthogonalEdgeStyle;rounded=0;orthogonalLoop=1;jettySize=auto;html=1;exitX=0.25;exitY=1;exitDx=0;exitDy=0;exitPerimeter=0;entryX=0.377;entryY=1.011;entryDx=0;entryDy=0;entryPerimeter=0;" parent="1" source="2mDlJUmidZRrBrmvubiY-122" target="2mDlJUmidZRrBrmvubiY-60" edge="1">
          <mxGeometry relative="1" as="geometry">
            <Array as="points">
              <mxPoint x="255" y="250" />
              <mxPoint x="210" y="250" />
              <mxPoint x="210" y="313" />
            </Array>
          </mxGeometry>
        </mxCell>
        <mxCell id="2mDlJUmidZRrBrmvubiY-113" value="(RS)" style="edgeLabel;html=1;align=center;verticalAlign=middle;resizable=0;points=[];" parent="2mDlJUmidZRrBrmvubiY-112" vertex="1" connectable="0">
          <mxGeometry x="0.72" relative="1" as="geometry">
            <mxPoint as="offset" />
          </mxGeometry>
        </mxCell>
        <mxCell id="2mDlJUmidZRrBrmvubiY-114" value="" style="edgeStyle=orthogonalEdgeStyle;rounded=0;orthogonalLoop=1;jettySize=auto;html=1;entryX=0.394;entryY=1.007;entryDx=0;entryDy=0;entryPerimeter=0;dashed=1;" parent="1" target="2mDlJUmidZRrBrmvubiY-76" edge="1">
          <mxGeometry x="-0.0016" relative="1" as="geometry">
            <Array as="points">
              <mxPoint x="264" y="500" />
            </Array>
            <mxPoint as="offset" />
            <mxPoint x="340" y="500" as="sourcePoint" />
          </mxGeometry>
        </mxCell>
        <mxCell id="2mDlJUmidZRrBrmvubiY-115" value="&lt;i&gt;rs&lt;/i&gt;" style="edgeLabel;html=1;align=center;verticalAlign=middle;resizable=0;points=[];" parent="2mDlJUmidZRrBrmvubiY-114" vertex="1" connectable="0">
          <mxGeometry x="-0.5" relative="1" as="geometry">
            <mxPoint as="offset" />
          </mxGeometry>
        </mxCell>
        <mxCell id="2mDlJUmidZRrBrmvubiY-116" style="edgeStyle=orthogonalEdgeStyle;rounded=0;orthogonalLoop=1;jettySize=auto;html=1;entryX=1;entryY=0.75;entryDx=0;entryDy=0;entryPerimeter=0;dashed=1;jumpStyle=arc;" parent="1" target="2mDlJUmidZRrBrmvubiY-122" edge="1">
          <mxGeometry relative="1" as="geometry">
            <Array as="points">
              <mxPoint x="390" y="210" />
              <mxPoint x="360" y="210" />
              <mxPoint x="360" y="212" />
            </Array>
            <mxPoint x="390" y="210" as="sourcePoint" />
          </mxGeometry>
        </mxCell>
        <mxCell id="2mDlJUmidZRrBrmvubiY-117" value="&lt;i&gt;rs_push&lt;/i&gt;" style="edgeLabel;html=1;align=center;verticalAlign=middle;resizable=0;points=[];" parent="2mDlJUmidZRrBrmvubiY-116" vertex="1" connectable="0">
          <mxGeometry relative="1" as="geometry">
            <mxPoint as="offset" />
          </mxGeometry>
        </mxCell>
        <mxCell id="2mDlJUmidZRrBrmvubiY-118" style="edgeStyle=orthogonalEdgeStyle;rounded=0;orthogonalLoop=1;jettySize=auto;html=1;entryX=1;entryY=0.5;entryDx=0;entryDy=0;entryPerimeter=0;dashed=1;jumpStyle=arc;" parent="1" target="2mDlJUmidZRrBrmvubiY-122" edge="1">
          <mxGeometry relative="1" as="geometry">
            <mxPoint x="390" y="195" as="sourcePoint" />
          </mxGeometry>
        </mxCell>
        <mxCell id="2mDlJUmidZRrBrmvubiY-119" value="&lt;i&gt;rs_pop&lt;/i&gt;" style="edgeLabel;html=1;align=center;verticalAlign=middle;resizable=0;points=[];" parent="2mDlJUmidZRrBrmvubiY-118" vertex="1" connectable="0">
          <mxGeometry relative="1" as="geometry">
            <mxPoint as="offset" />
          </mxGeometry>
        </mxCell>
        <mxCell id="2mDlJUmidZRrBrmvubiY-121" value="" style="group" parent="1" vertex="1" connectable="0">
          <mxGeometry x="230" y="160" width="100.00000000000003" height="70" as="geometry" />
        </mxCell>
        <mxCell id="2mDlJUmidZRrBrmvubiY-122" value="&lt;div&gt;Return&lt;/div&gt;&lt;div&gt;Stack&lt;/div&gt;&lt;div&gt;&lt;br&gt;&lt;/div&gt;&lt;div&gt;&lt;br&gt;&lt;/div&gt;" style="rounded=0;whiteSpace=wrap;html=1;fillColor=#dae8fc;strokeColor=#6c8ebf;points=[[0,0,0,0,0],[0,0.25,0,0,0],[0,0.5,0,0,0],[0,0.75,0,0,0],[0,1,0,0,0],[0.25,0,0,0,0],[0.25,1,0,0,0],[0.38,0,0,0,0],[0.5,0,0,0,0],[0.5,1,0,0,0],[0.75,0,0,0,0],[0.75,1,0,0,0],[1,0,0,0,0],[1,0.25,0,0,0],[1,0.5,0,0,0],[1,0.75,0,0,0],[1,1,0,0,0]];" parent="2mDlJUmidZRrBrmvubiY-121" vertex="1">
          <mxGeometry width="100" height="70" as="geometry" />
        </mxCell>
        <mxCell id="2mDlJUmidZRrBrmvubiY-123" value="" style="shape=tape;whiteSpace=wrap;html=1;strokeColor=#6c8ebf;" parent="2mDlJUmidZRrBrmvubiY-121" vertex="1">
          <mxGeometry y="40" width="100" height="20" as="geometry" />
        </mxCell>
        <mxCell id="2mDlJUmidZRrBrmvubiY-124" style="edgeStyle=orthogonalEdgeStyle;rounded=0;orthogonalLoop=1;jettySize=auto;html=1;exitX=0;exitY=0.5;exitDx=0;exitDy=0;entryX=0.75;entryY=1;entryDx=0;entryDy=0;entryPerimeter=0;" parent="1" source="2mDlJUmidZRrBrmvubiY-99" target="2mDlJUmidZRrBrmvubiY-122" edge="1">
          <mxGeometry relative="1" as="geometry" />
        </mxCell>
        <mxCell id="2mDlJUmidZRrBrmvubiY-125" style="edgeStyle=orthogonalEdgeStyle;rounded=0;orthogonalLoop=1;jettySize=auto;html=1;entryX=0.134;entryY=1.033;entryDx=0;entryDy=0;jumpStyle=arc;exitX=0;exitY=0.25;exitDx=0;exitDy=0;entryPerimeter=0;" parent="1" source="2mDlJUmidZRrBrmvubiY-128" target="2mDlJUmidZRrBrmvubiY-76" edge="1">
          <mxGeometry relative="1" as="geometry">
            <Array as="points">
              <mxPoint x="248" y="520" />
            </Array>
            <mxPoint x="390" y="860" as="sourcePoint" />
            <mxPoint x="248" y="441" as="targetPoint" />
          </mxGeometry>
        </mxCell>
        <mxCell id="2mDlJUmidZRrBrmvubiY-126" value="zero" style="edgeLabel;html=1;align=center;verticalAlign=middle;resizable=0;points=[];fontStyle=2" parent="2mDlJUmidZRrBrmvubiY-125" vertex="1" connectable="0">
          <mxGeometry x="-0.21" relative="1" as="geometry">
            <mxPoint as="offset" />
          </mxGeometry>
        </mxCell>
        <mxCell id="2mDlJUmidZRrBrmvubiY-128" value="Data&lt;div&gt;Path&lt;/div&gt;" style="rounded=0;whiteSpace=wrap;html=1;fillColor=#f5f5f5;strokeColor=#666666;fontColor=#333333;" parent="1" vertex="1">
          <mxGeometry x="399.94" y="500" width="80" height="80" as="geometry" />
        </mxCell>
        <mxCell id="rpwmIxq3N0sgSO_RnNwF-2" value="&lt;i&gt;sel_pc_type&lt;/i&gt;" style="edgeStyle=orthogonalEdgeStyle;rounded=0;orthogonalLoop=1;jettySize=auto;html=1;entryX=1;entryY=0.5;entryDx=0;entryDy=0;dashed=1;" parent="1" target="2mDlJUmidZRrBrmvubiY-76" edge="1">
          <mxGeometry relative="1" as="geometry">
            <mxPoint x="370" y="420" as="sourcePoint" />
            <mxPoint x="319.93" y="409.5" as="targetPoint" />
          </mxGeometry>
        </mxCell>
      </root>
    </mxGraphModel>
  </diagram>
</mxfile>
